<?xml version="1.0" encoding="utf-8"?>
<!-- Generator: Adobe Illustrator 28.0.0, SVG Export Plug-In . SVG Version: 6.00 Build 0)  -->
<svg version="1.1" id="Layer_1" xmlns="http://www.w3.org/2000/svg" xmlns:xlink="http://www.w3.org/1999/xlink" x="0px" y="0px"
	 viewBox="0 0 69 65.4" style="enable-background:new 0 0 69 65.4;" xml:space="preserve">
<style type="text/css">
	.st0{fill-rule:evenodd;clip-rule:evenodd;}
</style>
<g>
	<path class="st0" d="M4.8,12.5H1.1c-0.6,0-1-0.5-1-1V1.3c0-0.6,0.5-1,1-1H68c0.6,0,1,0.5,1,1v10.1c0,0.6-0.5,1-1,1h-3.7v46.1h2.6
		c0.6,0,1,0.5,1,1v4.7c0,0.6-0.5,1-1,1h-13c-0.6,0-1-0.5-1-1v-4.7c0-0.6,0.5-1,1-1h2.6V45.9H55v2c0,0.6-0.5,1-1,1H15.1
		c-0.6,0-1-0.5-1-1v-2h-1.4v12.7h2.6c0.6,0,1,0.5,1,1v4.7c0,0.6-0.5,1-1,1h-13c-0.6,0-1-0.5-1-1v-4.7c0-0.6,0.5-1,1-1h2.6L4.8,12.5z
		 M62.2,58.6V12.5h-3.7v46.1H62.2z M55,43.8h1.4V28.3H32.2v4.6c0,0.6-0.5,1-1,1h-0.6v1.7c0,0.6-0.5,1-1,1h-1.2v1.1c0,0.6-0.5,1-1,1
		c-0.6,0-1-0.5-1-1v-1.1H25c-0.6,0-1-0.5-1-1V34h-0.6c-0.6,0-1-0.5-1-1v-4.6h-9.6v15.5H14v-2c0-0.6,0.5-1,1-1H54c0.6,0,1,0.5,1,1
		L55,43.8z M10.6,58.6V12.5H6.9v46.1H10.6z M56.4,26.2V12.5H12.7v13.7h9.6v-2.5c0-0.6,0.5-1,1-1h7.8c0.6,0,1,0.5,1,1v2.5H56.4z
		 M27.3,34.7h1.2V34H26v0.7H27.3z M24.4,26.2h5.8v-1.5h-5.8V26.2z M7.6,3.1c1.8,0,3.3,1.5,3.3,3.3c0,1.8-1.5,3.3-3.3,3.3
		S4.3,8.2,4.3,6.4C4.3,4.5,5.8,3.1,7.6,3.1z M7.6,5.2C7,5.2,6.4,5.7,6.4,6.4C6.4,7,7,7.6,7.6,7.6c0.7,0,1.2-0.5,1.2-1.2
		C8.8,5.7,8.3,5.2,7.6,5.2z M62,5.1c0-0.6,0.5-1,1-1c0.6,0,1,0.5,1,1v2.6c0,0.6-0.5,1-1,1c-0.6,0-1-0.5-1-1V5.1z M58.9,5.1
		c0-0.6,0.5-1,1-1c0.6,0,1,0.5,1,1v2.6c0,0.6-0.5,1-1,1c-0.6,0-1-0.5-1-1V5.1z M48.3,7.4c-0.6,0-1-0.5-1-1c0-0.6,0.5-1,1-1h7.5
		c0.6,0,1,0.5,1,1c0,0.6-0.5,1-1,1H48.3z M16,3.1c1.8,0,3.3,1.5,3.3,3.3c0,1.8-1.5,3.3-3.3,3.3s-3.3-1.5-3.3-3.3
		C12.7,4.5,14.1,3.1,16,3.1z M16,5.2c-0.7,0-1.2,0.5-1.2,1.2c0,0.7,0.5,1.2,1.2,1.2c0.7,0,1.2-0.5,1.2-1.2C17.2,5.7,16.6,5.2,16,5.2
		z M42.6,7.4c-0.6,0-1-0.5-1-1c0-0.6,0.5-1,1-1h2.6c0.6,0,1,0.5,1,1c0,0.6-0.5,1-1,1H42.6z"/>
</g>
</svg>
