<svg xmlns="http://www.w3.org/2000/svg" version="1.1" viewBox="-5.0 -10.0 110.0 135.0">
 <path d="m16.688 27.148h-4.1875c-0.64844 0-1.1719-0.52734-1.1719-1.1719v-11.289c0-0.64844 0.52344-1.1719 1.1719-1.1719h75c0.64844 0 1.1719 0.52344 1.1719 1.1719v11.289c0 0.64453-0.52344 1.1719-1.1719 1.1719h-4.1875v51.695h2.8828c0.64844 0 1.1719 0.52734 1.1719 1.1719v5.2969c0 0.64844-0.52344 1.1719-1.1719 1.1719h-14.566c-0.64844 0-1.1719-0.52344-1.1719-1.1719v-5.2969c0-0.64453 0.52344-1.1719 1.1719-1.1719h2.8789v-14.18h-1.5234v2.2266c0 0.64453-0.52344 1.1719-1.1719 1.1719h-43.625c-0.64844 0-1.1719-0.52734-1.1719-1.1719v-2.2266h-1.5234v14.18h2.8789c0.64844 0 1.1719 0.52734 1.1719 1.1719v5.2969c0 0.64844-0.52344 1.1719-1.1719 1.1719h-14.566c-0.64844 0-1.1719-0.52344-1.1719-1.1719v-5.2969c0-0.64453 0.52344-1.1719 1.1719-1.1719h2.8828zm64.281 51.695v-51.695h-4.1172v51.695zm-7.9844-16.523h1.5234v-17.426h-27.09v5.1992c0 0.64453-0.52734 1.1719-1.1719 1.1719h-0.66797v1.9375c0 0.64844-0.52344 1.1719-1.1719 1.1719h-1.3828v1.2852c0 0.64453-0.52734 1.1719-1.1719 1.1719-0.64844 0-1.1719-0.52734-1.1719-1.1719v-1.2852h-1.3867c-0.64453 0-1.1719-0.52344-1.1719-1.1719v-1.9375h-0.66797c-0.64453 0-1.1719-0.52734-1.1719-1.1719v-5.1992h-10.789v17.426h1.5234v-2.2227c0-0.64844 0.52344-1.1719 1.1719-1.1719h43.625c0.64844 0 1.1719 0.52344 1.1719 1.1719zm-49.836 16.523v-51.695h-4.1172v51.695zm51.359-36.293v-15.402h-49.016v15.402h10.789v-2.8164c0-0.64453 0.52734-1.1719 1.1719-1.1719h8.793c0.64453 0 1.1719 0.52734 1.1719 1.1719v2.8164zm-32.656 9.4805h1.3828v-0.76562h-2.7695v0.76562zm-3.2266-9.4805h6.4492v-1.6445h-6.4492zm-18.773-25.918c2.0391 0 3.6953 1.6562 3.6953 3.6992 0 2.0391-1.6562 3.6953-3.6953 3.6953-2.0391 0-3.6953-1.6562-3.6953-3.6953 0-2.043 1.6562-3.6992 3.6953-3.6992zm0 2.3438c-0.74609 0-1.3516 0.60938-1.3516 1.3555 0 0.74609 0.60547 1.3516 1.3516 1.3516 0.74609 0 1.3516-0.60547 1.3516-1.3516 0-0.74609-0.60547-1.3555-1.3516-1.3555zm60.992-0.078124c0-0.64453 0.52734-1.1719 1.1719-1.1719 0.64844 0 1.1719 0.52734 1.1719 1.1719v2.8633c0 0.64453-0.52344 1.1719-1.1719 1.1719-0.64453 0-1.1719-0.52734-1.1719-1.1719zm-3.5391 0c0-0.64453 0.52734-1.1719 1.1719-1.1719 0.64844 0 1.1719 0.52734 1.1719 1.1719v2.8633c0 0.64453-0.52344 1.1719-1.1719 1.1719-0.64453 0-1.1719-0.52734-1.1719-1.1719zm-11.875 2.6055c-0.64844 0-1.1719-0.52734-1.1719-1.1719 0-0.64844 0.52344-1.1719 1.1719-1.1719h8.3594c0.64844 0 1.1719 0.52344 1.1719 1.1719 0 0.64453-0.52344 1.1719-1.1719 1.1719zm-36.234-4.8711c2.0391 0 3.6953 1.6562 3.6953 3.6992 0 2.0391-1.6562 3.6953-3.6953 3.6953-2.0391 0-3.6953-1.6562-3.6953-3.6953 0-2.043 1.6562-3.6992 3.6953-3.6992zm0 2.3438c-0.74609 0-1.3516 0.60938-1.3516 1.3555 0 0.74609 0.60547 1.3516 1.3516 1.3516 0.74609 0 1.3516-0.60547 1.3516-1.3516 0-0.74609-0.60547-1.3555-1.3516-1.3555zm29.836 2.5273c-0.64844 0-1.1719-0.52734-1.1719-1.1719 0-0.64844 0.52344-1.1719 1.1719-1.1719h2.8594c0.64844 0 1.1719 0.52344 1.1719 1.1719 0 0.64453-0.52344 1.1719-1.1719 1.1719z" fill-rule="evenodd"/>
<text x="0.0" y="117.5" font-size="5.0" font-weight="bold" font-family="Arbeit Regular, Helvetica, Arial-Unicode, Arial, Sans-serif" fill="#000000">Created by Ahmad Faiz Shofiyyulloh</text><text x="0.0" y="122.5" font-size="5.0" font-weight="bold" font-family="Arbeit Regular, Helvetica, Arial-Unicode, Arial, Sans-serif" fill="#000000">from Noun Project</text></svg>