<svg xml:space="preserve" style="enable-background:new 0 0 832.994 555.883;" viewBox="0 0 832.994 555.883" y="0px" x="0px" xmlns:xlink="http://www.w3.org/1999/xlink" xmlns="http://www.w3.org/2000/svg" version="1.1">
<g id="Layer_1">
	<g>
		<g>
			<path d="M2.2,262.999c-1.467,0-2.2-0.736-2.2-2.202V8.439C0,6.97,0.733,6.236,2.2,6.236h55.388
				c1.467,0,2.2,0.734,2.567,2.203l37.414,146.354L134.982,8.804c0.368-1.834,1.835-2.568,3.303-2.568h56.854
				c1.467,0,2.202,0.734,2.202,2.203v252.359c0,1.466-0.734,2.202-2.202,2.202h-55.754c-1.467,0-2.2-0.736-2.2-2.202V153.692
				l-24.21,107.106c-0.365,1.466-1.467,2.202-2.934,2.202H68.959c-1.467,0-2.568-0.736-2.936-2.202L41.816,153.692v107.106
				c0,1.466-0.734,2.202-2.2,2.202H2.2z" style="fill:#000000;"></path>
			<path d="M225.944,198.073V71.161C225.944,12.839,270.694,0,308.108,0
				c37.415,0,82.163,12.839,82.163,71.161v126.912c0,58.323-44.748,71.161-82.163,71.161
				C270.694,269.234,225.944,256.397,225.944,198.073" style="fill:#000000;"></path>
			<path d="M400.904,262.999c-1.467,0-2.202-0.367-2.202-1.467c0-0.368,0-0.734,0.368-1.469l58.688-128.746
				L405.673,9.169c0,0-0.368-0.731-0.368-1.1c0-1.466,0.734-1.834,2.567-1.834h59.79c1.1,0,1.834,0.368,2.202,1.469l29.344,74.826
				l31.545-74.826c0.367-1.101,1.1-1.469,2.199-1.469h43.651c1.467,0,2.201,0.734,2.201,1.469s-0.368,1.465-0.368,1.465
				l-55.753,122.513l54.653,128.381c0,0,0.367,0.734,0.367,1.101c0,1.469-1.1,1.835-2.2,1.835h-60.155
				c-1.467,0-2.203-0.367-2.568-1.467l-31.546-81.065l-33.746,81.065c-0.367,1.101-1.1,1.467-2.202,1.467H400.904z" style="fill:#000000;"></path>
			<path d="M599.707,262.999c-1.467,0-2.2-0.736-2.2-2.202V8.439c0-1.469,0.733-2.203,2.2-2.203h55.755
				c1.466,0,2.2,0.734,2.2,2.203v252.359c0,1.466-0.734,2.202-2.2,2.202H599.707z" style="fill:#000000;"></path>
			<path d="M694.343,263.004c-1.467,0-2.2-0.736-2.2-2.202V8.443c0-1.469,0.733-2.203,2.2-2.203h136.451
				c1.466,0,2.2,0.734,2.2,2.203v37.411c0,1.47-0.734,2.2-2.2,2.2h-78.495v53.555h68.225c1.466,0,2.201,0.734,2.201,2.2v37.415
				c0,1.466-0.734,2.2-2.201,2.2h-68.225v77.762h78.495c1.466,0,2.2,0.734,2.2,2.2v37.414c0,1.466-0.734,2.202-2.2,2.202H694.343z" style="fill:#000000;"></path>
		</g>
		<g>
			<path d="M780.693,292.884c1.467,0,2.201,0.734,2.201,2.2v252.36c0,1.469-0.733,2.203-2.201,2.203h-55.388
				c-1.467,0-2.201-0.734-2.568-2.203l-37.414-146.354l-37.413,145.987c-0.368,1.835-1.835,2.569-3.302,2.569h-56.854
				c-1.467,0-2.202-0.734-2.202-2.203v-252.36c0-1.466,0.734-2.2,2.202-2.2h55.754c1.467,0,2.2,0.734,2.2,2.2v107.106l24.21-107.106
				c0.365-1.466,1.466-2.2,2.932-2.2h41.083c1.467,0,2.568,0.734,2.935,2.2l24.208,107.106V295.085c0-1.466,0.734-2.2,2.201-2.2
				H780.693z" style="fill:#000000;"></path>
			<path d="M242.298,549.647c-1.467,0-2.2-0.734-2.2-2.2v-252.36c0-1.469,0.733-2.203,2.2-2.203h81.064
				c33.013,0,68.593,16.14,68.593,71.53c0,33.377-13.572,52.452-31.546,62.722l42.549,118.843c0.368,1.101,0.368,1.834,0.368,2.203
				c0,1.101-0.734,1.466-2.202,1.466h-57.221c-0.733,0-1.467-0.365-1.834-1.466L307.59,435.94h-7.336v111.507
				c0,1.466-0.734,2.2-2.2,2.2H242.298z" style="fill:#000000;"></path>
			<path d="M425.328,549.647c-1.467,0-2.201-0.734-2.201-2.2v-252.36c0-1.469,0.733-2.203,2.201-2.203H561.78
				c1.469,0,2.199,0.734,2.199,2.203V332.5c0,1.469-0.731,2.2-2.199,2.2h-78.5v53.555h68.23c1.469,0,2.199,0.734,2.199,2.2v37.415
				c0,1.466-0.731,2.2-2.199,2.2h-68.23v77.761h78.5c1.469,0,2.199,0.734,2.199,2.2v37.415c0,1.466-0.731,2.2-2.199,2.2H425.328z" style="fill:#000000;"></path>
			<path d="M132.261,286.649c-37.414,0-82.163,12.84-82.163,71.161v126.912
				c0,58.325,44.749,71.161,82.163,71.161c37.415,0,82.164-12.836,82.164-71.161V451.54v-21.47v-6.604c0-1.466-0.733-2.2-2.201-2.2
				H156.47c-1.466,0-2.2,0.734-2.2,2.2v6.604v21.47v33.182c0,23.476-8.803,29.345-22.008,29.345s-22.008-5.869-22.008-29.345V357.81
				c0-23.476,8.803-29.345,22.008-29.345s22.008,5.87,22.008,29.345v2.241v28.074v0.13h0.018c0.048,1.369,0.764,2.07,2.182,2.07
				h55.755c1.416,0,2.134-0.701,2.182-2.07h0.018v-0.13v-28.074v-2.241C214.425,299.489,169.676,286.649,132.261,286.649" style="fill:#000000;"></path>
		</g>
	</g>
</g>
<g id="Layer_2">
	<g>
		<g>
			<path d="M2.2,262.999c-1.467,0-2.2-0.736-2.2-2.202V8.439C0,6.97,0.733,6.236,2.2,6.236h55.388
				c1.467,0,2.2,0.734,2.567,2.203l37.414,146.354L134.982,8.804c0.368-1.834,1.835-2.568,3.303-2.568h56.854
				c1.467,0,2.202,0.734,2.202,2.203v252.359c0,1.466-0.734,2.202-2.202,2.202h-55.754c-1.467,0-2.2-0.736-2.2-2.202V153.692
				l-24.21,107.106c-0.365,1.466-1.467,2.202-2.934,2.202H68.959c-1.467,0-2.568-0.736-2.936-2.202L41.816,153.692v107.106
				c0,1.466-0.734,2.202-2.2,2.202H2.2z" style="fill:#000000;"></path>
			<path d="M225.944,198.073V71.161C225.944,12.839,270.694,0,308.108,0
				c37.415,0,82.163,12.839,82.163,71.161v126.912c0,58.323-44.748,71.161-82.163,71.161
				C270.694,269.234,225.944,256.397,225.944,198.073" style="fill:#000000;"></path>
			<path d="M400.904,262.999c-1.467,0-2.202-0.367-2.202-1.467c0-0.368,0-0.734,0.368-1.469l58.688-128.746
				L405.673,9.169c0,0-0.368-0.731-0.368-1.1c0-1.466,0.734-1.834,2.567-1.834h59.79c1.1,0,1.834,0.368,2.202,1.469l29.344,74.826
				l31.545-74.826c0.367-1.101,1.1-1.469,2.199-1.469h43.651c1.467,0,2.201,0.734,2.201,1.469s-0.368,1.465-0.368,1.465
				l-55.753,122.513l54.653,128.381c0,0,0.367,0.734,0.367,1.101c0,1.469-1.1,1.835-2.2,1.835h-60.155
				c-1.467,0-2.203-0.367-2.568-1.467l-31.546-81.065l-33.746,81.065c-0.367,1.101-1.1,1.467-2.202,1.467H400.904z" style="fill:#000000;"></path>
			<path d="M599.707,262.999c-1.467,0-2.2-0.736-2.2-2.202V8.439c0-1.469,0.733-2.203,2.2-2.203h55.755
				c1.466,0,2.2,0.734,2.2,2.203v252.359c0,1.466-0.734,2.202-2.2,2.202H599.707z" style="fill:#000000;"></path>
			<path d="M694.343,263.004c-1.467,0-2.2-0.736-2.2-2.202V8.443c0-1.469,0.733-2.203,2.2-2.203h136.451
				c1.466,0,2.2,0.734,2.2,2.203v37.411c0,1.47-0.734,2.2-2.2,2.2h-78.495v53.555h68.225c1.466,0,2.201,0.734,2.201,2.2v37.415
				c0,1.466-0.734,2.2-2.201,2.2h-68.225v77.762h78.495c1.466,0,2.2,0.734,2.2,2.2v37.414c0,1.466-0.734,2.202-2.2,2.202H694.343z" style="fill:#000000;"></path>
		</g>
		<g>
			<path d="M780.693,292.884c1.467,0,2.201,0.734,2.201,2.2v252.36c0,1.469-0.733,2.203-2.201,2.203h-55.388
				c-1.467,0-2.201-0.734-2.568-2.203l-37.414-146.354l-37.413,145.987c-0.368,1.835-1.835,2.569-3.302,2.569h-56.854
				c-1.467,0-2.202-0.734-2.202-2.203v-252.36c0-1.466,0.734-2.2,2.202-2.2h55.754c1.467,0,2.2,0.734,2.2,2.2v107.106l24.21-107.106
				c0.365-1.466,1.466-2.2,2.932-2.2h41.083c1.467,0,2.568,0.734,2.935,2.2l24.208,107.106V295.085c0-1.466,0.734-2.2,2.201-2.2
				H780.693z" style="fill:#000000;"></path>
			<path d="M242.298,549.647c-1.467,0-2.2-0.734-2.2-2.2v-252.36c0-1.469,0.733-2.203,2.2-2.203h81.064
				c33.013,0,68.593,16.14,68.593,71.53c0,33.377-13.572,52.452-31.546,62.722l42.549,118.843c0.368,1.101,0.368,1.834,0.368,2.203
				c0,1.101-0.734,1.466-2.202,1.466h-57.221c-0.733,0-1.467-0.365-1.834-1.466L307.59,435.94h-7.336v111.507
				c0,1.466-0.734,2.2-2.2,2.2H242.298z" style="fill:#000000;"></path>
			<path d="M425.328,549.647c-1.467,0-2.201-0.734-2.201-2.2v-252.36c0-1.469,0.733-2.203,2.201-2.203H561.78
				c1.469,0,2.199,0.734,2.199,2.203V332.5c0,1.469-0.731,2.2-2.199,2.2h-78.5v53.555h68.23c1.469,0,2.199,0.734,2.199,2.2v37.415
				c0,1.466-0.731,2.2-2.199,2.2h-68.23v77.761h78.5c1.469,0,2.199,0.734,2.199,2.2v37.415c0,1.466-0.731,2.2-2.199,2.2H425.328z" style="fill:#000000;"></path>
			<path d="M132.261,286.649c-37.414,0-82.163,12.84-82.163,71.161v126.912
				c0,58.325,44.749,71.161,82.163,71.161c37.415,0,82.164-12.836,82.164-71.161V451.54v-21.47v-6.604c0-1.466-0.733-2.2-2.201-2.2
				H156.47c-1.466,0-2.2,0.734-2.2,2.2v6.604v21.47v33.182c0,23.476-8.803,29.345-22.008,29.345s-22.008-5.869-22.008-29.345V357.81
				c0-23.476,8.803-29.345,22.008-29.345s22.008,5.87,22.008,29.345v2.241v28.074v0.13h0.018c0.048,1.369,0.764,2.07,2.182,2.07
				h55.755c1.416,0,2.134-0.701,2.182-2.07h0.018v-0.13v-28.074v-2.241C214.425,299.489,169.676,286.649,132.261,286.649" style="fill:#000000;"></path>
		</g>
	</g>
</g>
</svg>
