<svg xml:space="preserve" style="enable-background:new 0 0 840.193 137.199;" viewBox="0 0 840.193 137.199" y="0px" x="0px" xmlns:xlink="http://www.w3.org/1999/xlink" xmlns="http://www.w3.org/2000/svg" version="1.1">
<g id="Layer_1">
	<g>
		<path d="M99.441,3.178H70.469c-0.748,0-1.496,0.374-1.683,1.309L49.72,78.881L30.654,4.3
			c-0.187-0.748-0.56-1.123-1.308-1.123H1.121C0.374,3.178,0,3.552,0,4.3V132.9c0,0.747,0.374,1.122,1.121,1.122h19.066
			c0.747,0,1.121-0.375,1.121-1.122V78.32l12.336,54.58c0.187,0.747,0.748,1.122,1.496,1.122h20.935
			c0.747,0,1.309-0.375,1.495-1.122l12.337-54.58v54.58c0,0.747,0.374,1.122,1.121,1.122h28.412c0.748,0,1.122-0.375,1.122-1.122
			V4.3C100.563,3.552,100.188,3.178,99.441,3.178z" style="fill:#EF3B24;"></path>
		<path d="M157.009,0c-19.066,0-41.87,6.542-41.87,36.263v64.673c0,29.721,22.804,36.263,41.87,36.263
			c19.066,0,41.87-6.542,41.87-36.263V36.263C198.878,6.542,176.075,0,157.009,0z" style="fill:#EF3B24;"></path>
		<path d="M293.831,3.178h-22.244c-0.56,0-0.934,0.187-1.121,0.748l-16.075,38.131L239.438,3.926
			c-0.187-0.561-0.562-0.748-1.122-0.748h-30.468c-0.934,0-1.308,0.187-1.308,0.935c0,0.188,0.187,0.56,0.187,0.56l26.542,62.245
			l-29.907,65.608c-0.187,0.374-0.187,0.561-0.187,0.748c0,0.561,0.374,0.748,1.122,0.748h22.616c0.562,0,0.935-0.187,1.122-0.748
			l17.197-41.31l16.075,41.31c0.186,0.561,0.561,0.748,1.309,0.748h30.654c0.561,0,1.121-0.187,1.121-0.935
			c0-0.187-0.187-0.561-0.187-0.561l-27.851-65.422l28.411-62.431c0,0,0.187-0.372,0.187-0.747S294.579,3.178,293.831,3.178z" style="fill:#EF3B24;"></path>
		<path d="M334.017,3.178h-28.412c-0.748,0-1.121,0.374-1.121,1.123V132.9c0,0.747,0.374,1.122,1.121,1.122
			h28.412c0.747,0,1.121-0.375,1.121-1.122V4.3C335.138,3.552,334.764,3.178,334.017,3.178z" style="fill:#EF3B24;"></path>
		<path d="M423.363,3.178h-69.534c-0.748,0-1.121,0.374-1.121,1.123V132.9c0,0.747,0.374,1.122,1.121,1.122
			h69.534c0.747,0,1.121-0.375,1.121-1.122v-19.066c0-0.747-0.374-1.121-1.121-1.121h-40V73.086h34.767
			c0.747,0,1.121-0.374,1.121-1.121V52.898c0-0.747-0.374-1.121-1.121-1.121h-34.767V24.486h40c0.747,0,1.121-0.372,1.121-1.121V4.3
			C424.484,3.552,424.11,3.178,423.363,3.178z" style="fill:#EF3B24;"></path>
		<path d="M839.072,3.178h-19.066c-0.747,0-1.121,0.374-1.121,1.121v54.58l-12.336-54.58
			c-0.187-0.747-0.748-1.121-1.496-1.121h-20.935c-0.747,0-1.308,0.374-1.494,1.121l-12.337,54.58V4.299
			c0-0.747-0.373-1.121-1.121-1.121h-28.412c-0.748,0-1.122,0.374-1.122,1.121v128.6c0,0.748,0.374,1.123,1.122,1.123h28.972
			c0.748,0,1.496-0.374,1.683-1.309l19.065-74.394l19.066,74.58c0.187,0.748,0.561,1.123,1.309,1.123h28.225
			c0.748,0,1.121-0.374,1.121-1.123V4.299C840.193,3.552,839.82,3.178,839.072,3.178z" style="fill:#EF3B24;"></path>
		<path d="M624.899,71.591c9.159-5.234,16.075-14.954,16.075-31.962c0-28.226-18.131-36.451-34.954-36.451
			h-41.309c-0.748,0-1.121,0.374-1.121,1.123v128.6c0,0.747,0.374,1.121,1.121,1.121h28.412c0.747,0,1.121-0.374,1.121-1.121V76.077
			h3.738l17.57,57.197c0.187,0.561,0.561,0.747,0.935,0.747h29.159c0.748,0,1.122-0.186,1.122-0.747c0-0.188,0-0.562-0.187-1.123
			L624.899,71.591z" style="fill:#EF3B24;"></path>
		<path d="M727.516,3.177h-69.535c-0.748,0-1.121,0.374-1.121,1.123v128.6c0,0.747,0.374,1.121,1.121,1.121
			h69.535c0.748,0,1.121-0.374,1.121-1.121v-19.066c0-0.747-0.372-1.121-1.121-1.121h-40.003V73.086h34.769
			c0.748,0,1.121-0.374,1.121-1.121V52.899c0-0.747-0.372-1.121-1.121-1.121h-34.769V24.486h40.003c0.748,0,1.121-0.373,1.121-1.121
			V4.3C728.637,3.552,728.265,3.177,727.516,3.177z" style="fill:#EF3B24;"></path>
		<path d="M508.638,0c-19.066,0-41.87,6.543-41.87,36.263v64.673c0,29.722,22.804,36.263,41.87,36.263
			c19.066,0,41.87-6.541,41.87-36.263V84.027V73.086v-3.365c0-0.747-0.374-1.121-1.121-1.121h-28.412
			c-0.747,0-1.121,0.374-1.121,1.121v3.365v10.941v16.909c0,11.963-4.486,14.954-11.215,14.954s-11.215-2.991-11.215-14.954V36.263
			c0-11.963,4.486-14.954,11.215-14.954s11.215,2.991,11.215,14.954v1.142v14.306v0.066h0.009c0.024,0.698,0.389,1.055,1.112,1.055
			h28.412c0.722,0,1.088-0.357,1.112-1.055h0.009v-0.066V37.405v-1.142C550.508,6.543,527.704,0,508.638,0z" style="fill:#EF3B24;"></path>
	</g>
</g>
<g id="Layer_2">
	<g>
		<path d="M99.441,3.178H70.469c-0.748,0-1.496,0.374-1.683,1.309L49.72,78.881L30.654,4.3
			c-0.187-0.748-0.56-1.123-1.308-1.123H1.121C0.374,3.178,0,3.552,0,4.3V132.9c0,0.747,0.374,1.122,1.121,1.122h19.066
			c0.747,0,1.121-0.375,1.121-1.122V78.32l12.336,54.58c0.187,0.747,0.748,1.122,1.496,1.122h20.935
			c0.747,0,1.309-0.375,1.495-1.122l12.337-54.58v54.58c0,0.747,0.374,1.122,1.121,1.122h28.412c0.748,0,1.122-0.375,1.122-1.122
			V4.3C100.563,3.552,100.188,3.178,99.441,3.178z" style="fill:#EF3B24;"></path>
		<path d="M157.009,0c-19.066,0-41.87,6.542-41.87,36.263v64.673c0,29.721,22.804,36.263,41.87,36.263
			c19.066,0,41.87-6.542,41.87-36.263V36.263C198.878,6.542,176.075,0,157.009,0z" style="fill:#EF3B24;"></path>
		<path d="M293.831,3.178h-22.244c-0.56,0-0.934,0.187-1.121,0.748l-16.075,38.131L239.438,3.926
			c-0.187-0.561-0.562-0.748-1.122-0.748h-30.468c-0.934,0-1.308,0.187-1.308,0.935c0,0.188,0.187,0.56,0.187,0.56l26.542,62.245
			l-29.907,65.608c-0.187,0.374-0.187,0.561-0.187,0.748c0,0.561,0.374,0.748,1.122,0.748h22.616c0.562,0,0.935-0.187,1.122-0.748
			l17.197-41.31l16.075,41.31c0.186,0.561,0.561,0.748,1.309,0.748h30.654c0.561,0,1.121-0.187,1.121-0.935
			c0-0.187-0.187-0.561-0.187-0.561l-27.851-65.422l28.411-62.431c0,0,0.187-0.372,0.187-0.747S294.579,3.178,293.831,3.178z" style="fill:#EF3B24;"></path>
		<path d="M334.017,3.178h-28.412c-0.748,0-1.121,0.374-1.121,1.123V132.9c0,0.747,0.374,1.122,1.121,1.122
			h28.412c0.747,0,1.121-0.375,1.121-1.122V4.3C335.138,3.552,334.764,3.178,334.017,3.178z" style="fill:#EF3B24;"></path>
		<path d="M423.363,3.178h-69.534c-0.748,0-1.121,0.374-1.121,1.123V132.9c0,0.747,0.374,1.122,1.121,1.122
			h69.534c0.747,0,1.121-0.375,1.121-1.122v-19.066c0-0.747-0.374-1.121-1.121-1.121h-40V73.086h34.767
			c0.747,0,1.121-0.374,1.121-1.121V52.898c0-0.747-0.374-1.121-1.121-1.121h-34.767V24.486h40c0.747,0,1.121-0.372,1.121-1.121V4.3
			C424.484,3.552,424.11,3.178,423.363,3.178z" style="fill:#EF3B24;"></path>
		<path d="M839.072,3.178h-19.066c-0.747,0-1.121,0.374-1.121,1.121v54.58l-12.336-54.58
			c-0.187-0.747-0.748-1.121-1.496-1.121h-20.935c-0.747,0-1.308,0.374-1.494,1.121l-12.337,54.58V4.299
			c0-0.747-0.373-1.121-1.121-1.121h-28.412c-0.748,0-1.122,0.374-1.122,1.121v128.6c0,0.748,0.374,1.123,1.122,1.123h28.972
			c0.748,0,1.496-0.374,1.683-1.309l19.065-74.394l19.066,74.58c0.187,0.748,0.561,1.123,1.309,1.123h28.225
			c0.748,0,1.121-0.374,1.121-1.123V4.299C840.193,3.552,839.82,3.178,839.072,3.178z" style="fill:#EF3B24;"></path>
		<path d="M624.899,71.591c9.159-5.234,16.075-14.954,16.075-31.962c0-28.226-18.131-36.451-34.954-36.451
			h-41.309c-0.748,0-1.121,0.374-1.121,1.123v128.6c0,0.747,0.374,1.121,1.121,1.121h28.412c0.747,0,1.121-0.374,1.121-1.121V76.077
			h3.738l17.57,57.197c0.187,0.561,0.561,0.747,0.935,0.747h29.159c0.748,0,1.122-0.186,1.122-0.747c0-0.188,0-0.562-0.187-1.123
			L624.899,71.591z" style="fill:#EF3B24;"></path>
		<path d="M727.516,3.177h-69.535c-0.748,0-1.121,0.374-1.121,1.123v128.6c0,0.747,0.374,1.121,1.121,1.121
			h69.535c0.748,0,1.121-0.374,1.121-1.121v-19.066c0-0.747-0.372-1.121-1.121-1.121h-40.003V73.086h34.769
			c0.748,0,1.121-0.374,1.121-1.121V52.899c0-0.747-0.372-1.121-1.121-1.121h-34.769V24.486h40.003c0.748,0,1.121-0.373,1.121-1.121
			V4.3C728.637,3.552,728.265,3.177,727.516,3.177z" style="fill:#EF3B24;"></path>
		<path d="M508.638,0c-19.066,0-41.87,6.543-41.87,36.263v64.673c0,29.722,22.804,36.263,41.87,36.263
			c19.066,0,41.87-6.541,41.87-36.263V84.027V73.086v-3.365c0-0.747-0.374-1.121-1.121-1.121h-28.412
			c-0.747,0-1.121,0.374-1.121,1.121v3.365v10.941v16.909c0,11.963-4.486,14.954-11.215,14.954s-11.215-2.991-11.215-14.954V36.263
			c0-11.963,4.486-14.954,11.215-14.954s11.215,2.991,11.215,14.954v1.142v14.306v0.066h0.009c0.024,0.698,0.389,1.055,1.112,1.055
			h28.412c0.722,0,1.088-0.357,1.112-1.055h0.009v-0.066V37.405v-1.142C550.508,6.543,527.704,0,508.638,0z" style="fill:#EF3B24;"></path>
	</g>
</g>
</svg>
